OFF
50 96 0
0.5 -0.5 0
0.4829629 -0.5 0.1294095
0.4330127 -0.5 0.25
0.3535534 -0.5 0.3535534
0.25 -0.5 0.4330127
0.1294095 -0.5 0.4829629
3.061617e-17 -0.5 0.5
-0.1294095 -0.5 0.4829629
-0.25 -0.5 0.4330127
-0.3535534 -0.5 0.3535534
-0.4330127 -0.5 0.25
-0.4829629 -0.5 0.1294095
-0.5 -0.5 6.123234e-17
-0.4829629 -0.5 -0.1294095
-0.4330127 -0.5 -0.25
-0.3535534 -0.5 -0.3535534
-0.25 -0.5 -0.4330127
-0.1294095 -0.5 -0.4829629
-9.184851e-17 -0.5 -0.5
0.1294095 -0.5 -0.4829629
0.25 -0.5 -0.4330127
0.3535534 -0.5 -0.3535534
0.4330127 -0.5 -0.25
0.4829629 -0.5 -0.1294095
0.5 0.5 0
0.4829629 0.5 0.1294095
0.4330127 0.5 0.25
0.3535534 0.5 0.3535534
0.25 0.5 0.4330127
0.1294095 0.5 0.4829629
3.061617e-17 0.5 0.5
-0.1294095 0.5 0.4829629
-0.25 0.5 0.4330127
-0.3535534 0.5 0.3535534
-0.4330127 0.5 0.25
-0.4829629 0.5 0.1294095
-0.5 0.5 6.123234e-17
-0.4829629 0.5 -0.1294095
-0.4330127 0.5 -0.25
-0.3535534 0.5 -0.3535534
-0.25 0.5 -0.4330127
-0.1294095 0.5 -0.4829629
-9.184851e-17 0.5 -0.5
0.1294095 0.5 -0.4829629
0.25 0.5 -0.4330127
0.3535534 0.5 -0.3535534
0.4330127 0.5 -0.25
0.4829629 0.5 -0.1294095
0 -0.5 0
0 0.5 0
3 0 25 1
3 0 24 25
3 1 26 2
3 1 25 26
3 2 27 3
3 2 26 27
3 3 28 4
3 3 27 28
3 4 29 5
3 4 28 29
3 5 30 6
3 5 29 30
3 6 31 7
3 6 30 31
3 7 32 8
3 7 31 32
3 8 33 9
3 8 32 33
3 9 34 10
3 9 33 34
3 10 35 11
3 10 34 35
3 11 36 12
3 11 35 36
3 12 37 13
3 12 36 37
3 13 38 14
3 13 37 38
3 14 39 15
3 14 38 39
3 15 40 16
3 15 39 40
3 16 41 17
3 16 40 41
3 17 42 18
3 17 41 42
3 18 43 19
3 18 42 43
3 19 44 20
3 19 43 44
3 20 45 21
3 20 44 45
3 21 46 22
3 21 45 46
3 22 47 23
3 22 46 47
3 23 24 0
3 23 47 24
3 48 0 1
3 49 25 24
3 48 1 2
3 49 26 25
3 48 2 3
3 49 27 26
3 48 3 4
3 49 28 27
3 48 4 5
3 49 29 28
3 48 5 6
3 49 30 29
3 48 6 7
3 49 31 30
3 48 7 8
3 49 32 31
3 48 8 9
3 49 33 32
3 48 9 10
3 49 34 33
3 48 10 11
3 49 35 34
3 48 11 12
3 49 36 35
3 48 12 13
3 49 37 36
3 48 13 14
3 49 38 37
3 48 14 15
3 49 39 38
3 48 15 16
3 49 40 39
3 48 16 17
3 49 41 40
3 48 17 18
3 49 42 41
3 48 18 19
3 49 43 42
3 48 19 20
3 49 44 43
3 48 20 21
3 49 45 44
3 48 21 22
3 49 46 45
3 48 22 23
3 49 47 46
3 48 23 0
3 49 24 47
